<svg xmlns="http://www.w3.org/2000/svg" xmlns:xlink="http://www.w3.org/1999/xlink" xmlns:lucid="lucid" width="1625.61" height="949.95"><g transform="translate(-104 -112.5)" lucid:page-tab-id="0_0"><path d="M380 142.5c0-5.52 4.48-10 10-10h177.5c5.52 0 10 4.48 10 10v60c0 5.52-4.48 10-10 10H390c-5.52 0-10-4.48-10-10z" stroke="#000" stroke-opacity="0" fill="#834187"/><use xlink:href="#a" transform="matrix(1,0,0,1,385,137.5) translate(62.89973958333333 46.00260416666667)"/><path d="M380 302.5c0-5.52 4.48-10 10-10h177.5c5.52 0 10 4.48 10 10v60c0 5.52-4.48 10-10 10H390c-5.52 0-10-4.48-10-10z" stroke="#000" stroke-opacity="0" fill="#3aa6dd"/><use xlink:href="#b" transform="matrix(1,0,0,1,385,297.5) translate(35.68619791666666 46.00260416666667)"/><path d="M882.5 302.5c0-5.52 4.48-10 10-10h176.44c5.53 0 10 4.48 10 10v60c0 5.52-4.47 10-10 10H892.5c-5.52 0-10-4.48-10-10z" stroke="#000" stroke-opacity="0" fill="#3aa6dd"/><use xlink:href="#c" transform="matrix(1,0,0,1,887.5000000000573,297.5) translate(54.971354166666664 46.00260416666667)"/><path d="M153.25 302.5c0-5.52 4.48-10 10-10h177.5c5.52 0 10 4.48 10 10v60c0 5.52-4.48 10-10 10h-177.5c-5.52 0-10-4.48-10-10z" stroke="#000" stroke-opacity="0" fill="#5abaa7"/><use xlink:href="#d" transform="matrix(1,0,0,1,158.25,297.5) translate(49.514322916666664 46.00260416666667)"/><path d="M153.25 422.5c0-5.52 4.48-10 10-10h177.5c5.52 0 10 4.48 10 10v60c0 5.52-4.48 10-10 10h-177.5c-5.52 0-10-4.48-10-10z" stroke="#000" stroke-opacity="0" fill="#5abaa7"/><use xlink:href="#e" transform="matrix(1,0,0,1,158.25,417.5) translate(37.854166666666664 46.00260416666667)"/><path d="M478.75 213v39.5H110v80h26.87" stroke="#333" fill="none"/><path d="M479.25 213h-1v-.5h1z" fill="#333"/><path d="M151.63 332.5l-14.26 4.64v-9.28z" stroke="#333" fill="#333"/><path d="M478.75 213v39.5H110v200h26.87" stroke="#333" fill="none"/><path d="M479.25 213h-1v-.5h1z" fill="#333"/><path d="M151.63 452.5l-14.26 4.64v-9.28z" stroke="#333" fill="#333"/><path d="M478.75 213v39.5h501.97v23.62" stroke="#333" fill="none"/><path d="M479.25 213h-1v-.5h1z" fill="#333"/><path d="M980.72 290.88l-4.63-14.26h9.26z" stroke="#333" fill="#333"/><path d="M478.75 213v63.12" stroke="#333" fill="none"/><path d="M479.25 213h-1v-.5h1z" fill="#333"/><path d="M478.75 290.88l-4.64-14.26h9.3z" stroke="#333" fill="#333"/><path d="M380 422.5c0-5.52 4.48-10 10-10h177.5c5.52 0 10 4.48 10 10v60c0 5.52-4.48 10-10 10H390c-5.52 0-10-4.48-10-10z" stroke="#000" stroke-opacity="0" fill="#5abaa7"/><use xlink:href="#f" transform="matrix(1,0,0,1,385,417.5) translate(44.110677083333336 46.00260416666667)"/><path d="M478.75 373v23.12" stroke="#333" fill="none"/><path d="M479.25 373h-1v-.5h1z" fill="#333"/><path d="M478.75 410.88l-4.64-14.26h9.3z" stroke="#333" fill="#333"/><path d="M1389.6 422.5c0-5.52 4.5-10 10-10h300c5.53 0 10 4.48 10 10v60c0 5.52-4.47 10-10 10h-300c-5.5 0-10-4.48-10-10z" stroke="#000" stroke-opacity="0" fill="#3aa6dd"/><use xlink:href="#g" transform="matrix(1,0,0,1,1394.6106116211758,417.5) translate(13.730468749999972 46.00260416666667)"/><path d="M882.5 542.5c0-5.52 4.48-10 10-10h176.44c5.53 0 10 4.48 10 10v60c0 5.52-4.47 10-10 10H892.5c-5.52 0-10-4.48-10-10z" stroke="#000" stroke-opacity="0" fill="#5abaa7"/><use xlink:href="#h" transform="matrix(1,0,0,1,887.5,537.5) translate(31.49479166666667 46.00260416666667)"/><path d="M882.5 662.5c0-5.52 4.48-10 10-10h176.44c5.53 0 10 4.48 10 10v60c0 5.52-4.47 10-10 10H892.5c-5.52 0-10-4.48-10-10z" stroke="#000" stroke-opacity="0" fill="#5abaa7"/><use xlink:href="#i" transform="matrix(1,0,0,1,887.5,657.5) translate(46.729166666666664 46.00260416666667)"/><path d="M882.5 782.5c0-5.52 4.48-10 10-10h176.44c5.53 0 10 4.48 10 10v60c0 5.52-4.47 10-10 10H892.5c-5.52 0-10-4.48-10-10z" stroke="#000" stroke-opacity="0" fill="#5abaa7"/><use xlink:href="#j" transform="matrix(1,0,0,1,887.5,777.5) translate(7.933593749999986 46.00260416666667)"/><path d="M1166.06 422.5c0-5.52 4.47-10 10-10h176.44c5.52 0 10 4.48 10 10v60c0 5.52-4.48 10-10 10h-176.44c-5.53 0-10-4.48-10-10z" stroke="#000" stroke-opacity="0" fill="#5abaa7"/><use xlink:href="#k" transform="matrix(1,0,0,1,1171.0553058106166,417.5) translate(20.869791666666657 46.00260416666667)"/><path d="M598.94 422.5c0-5.52 4.48-10 10-10H785.4c5.5 0 10 4.48 10 10v60c0 5.52-4.5 10-10 10H608.93c-5.52 0-10-4.48-10-10z" stroke="#000" stroke-opacity="0" fill="#5abaa7"/><use xlink:href="#l" transform="matrix(1,0,0,1,603.9446941894407,417.5) translate(39.96484375 46.00260416666667)"/><path d="M820.72 422.5c0-5.52 4.48-10 10-10h300c5.53 0 10 4.48 10 10v60c0 5.52-4.47 10-10 10h-300c-5.52 0-10-4.48-10-10z" stroke="#000" stroke-opacity="0" fill="#3aa6dd"/><use xlink:href="#m" transform="matrix(1,0,0,1,825.722347094706,417.5) translate(32.825520833333314 46.00260416666667)"/><path d="M1449.6 542.5c0-5.52 4.5-10 10-10h176.46c5.52 0 10 4.48 10 10v60c0 5.52-4.48 10-10 10H1459.6c-5.5 0-10-4.48-10-10z" stroke="#000" stroke-opacity="0" fill="#5abaa7"/><use xlink:href="#n" transform="matrix(1,0,0,1,1454.6106116211758,537.5) translate(11.169270833333329 46.00260416666667)"/><path d="M1449.6 661.18c0-5.52 4.5-10 10-10h176.46c5.52 0 10 4.48 10 10v62.64c0 5.52-4.48 10-10 10H1459.6c-5.5 0-10-4.48-10-10z" stroke="#000" stroke-opacity="0" fill="#5abaa7"/><use xlink:href="#o" transform="matrix(1,0,0,1,1454.6106116211758,656.1848958333334) translate(45.537760416666664 28.502604166666668)"/><use xlink:href="#p" transform="matrix(1,0,0,1,1454.6106116211758,656.1848958333334) translate(10.759114583333314 64.81770833333334)"/><path d="M980.72 493v17H842.5v62.5h23.62" stroke="#333" fill="none"/><path d="M981.22 493h-1v-.5h1z" fill="#333"/><path d="M880.88 572.5l-14.26 4.64v-9.28z" stroke="#333" fill="#333"/><path d="M980.72 493v17H842.5v182.5h23.62" stroke="#333" fill="none"/><path d="M981.22 493h-1v-.5h1z" fill="#333"/><path d="M880.88 692.5l-14.26 4.64v-9.28z" stroke="#333" fill="#333"/><path d="M980.72 493v17H842.5v302.5h23.62" stroke="#333" fill="none"/><path d="M981.22 493h-1v-.5h1z" fill="#333"/><path d="M880.88 812.5l-14.26 4.64v-9.28z" stroke="#333" fill="#333"/><path d="M980.72 373v17H697.17v6.12" stroke="#333" fill="none"/><path d="M981.22 373h-1v-.5h1z" fill="#333"/><path d="M697.17 410.88l-4.64-14.26h9.27z" stroke="#333" fill="#333"/><path d="M980.72 373v23.12" stroke="#333" fill="none"/><path d="M981.22 373h-1v-.5h1z" fill="#333"/><path d="M980.72 410.88l-4.63-14.26h9.26z" stroke="#333" fill="#333"/><path d="M980.72 373v17h283.56v6.12" stroke="#333" fill="none"/><path d="M981.22 373h-1v-.5h1z" fill="#333"/><path d="M1264.28 410.88l-4.64-14.26h9.27z" stroke="#333" fill="#333"/><path d="M980.72 373v17h568.9v6.12" stroke="#333" fill="none"/><path d="M981.22 373h-1v-.5h1z" fill="#333"/><path d="M1549.6 410.88l-4.62-14.26h9.27z" stroke="#333" fill="#333"/><path d="M1549.6 493v17h-140v62.5h23.63" stroke="#333" fill="none"/><path d="M1550.1 493h-1v-.5h1z" fill="#333"/><path d="M1448 572.5l-14.27 4.64v-9.28z" stroke="#333" fill="#333"/><path d="M1549.6 493v17h-140v182.5h23.63" stroke="#333" fill="none"/><path d="M1550.1 493h-1v-.5h1z" fill="#333"/><path d="M1448 692.5l-14.27 4.64v-9.28z" stroke="#333" fill="#333"/><path d="M979.68 975.13h-32.7c-3.82 0-6.98 3.17-6.98 6.97v38.07c0 3.8 3.16 6.97 6.97 6.97h36.22c3.8 0 6.97-3.18 6.97-6.97v-34.74l-10.5-10.3zm6.17 44.98c0 1.52-1.15 2.67-2.66 2.67h-36.23c-1.5 0-2.66-1.15-2.66-2.66v-38.16c0-1.5 1.17-2.65 2.67-2.65h30.55v8.42h8.28v32.4h.05z" stroke="#000" stroke-opacity="0" fill="#ef8d22"/><path d="M955.1 993.07v3.5c0 1.96-.8 3-2.3 3v2.97c1.65 0 2.3 1.04 2.3 2.86v3.8c0 2.02.55 3.32 1.35 4.15 1 1 2.66 1.5 5.17 1.5v-3c-.85 0-1.5-.16-2-.63-.36-.36-.5-1.2-.5-2.18v-3.17c0-2.5-.86-4.16-2.3-4.8 1.64-.67 2.3-2.17 2.3-4.62v-3.38c0-1.82.8-2.6 2.5-2.6v-3c-2.5 0-4.16.45-5.17 1.5-.8.62-1.35 2.07-1.35 4.1zM973.36 996.56v-3.7c0-1.97-.5-3.32-1.3-4.3-1-1-2.66-1.47-5.17-1.47v2.96c1.64 0 2.5.83 2.5 2.65v3.13c0 2.65.85 4.16 2.3 4.83-1.65.63-2.3 2.14-2.3 4.63v3.32c0 1.04-.15 1.67-.5 2.2-.3.5-1 .6-2 .6v3.03c2.5 0 4.15-.52 5.16-1.5.8-.84 1.3-2.3 1.3-4.33v-3.64c0-1.97.85-3 2.36-3v-2.82c-1.5.36-2.36-.63-2.36-2.6zM979.73 892.5h-32.76c-3.8 0-6.97 3.17-6.97 6.97v38.07c0 3.8 3.16 6.97 6.97 6.97h36.22c3.8 0 6.97-3.17 6.97-6.96V902.8l-10.44-10.3zm6.12 44.98c0 1.5-1.15 2.66-2.66 2.66h-36.23c-1.5 0-2.66-1.15-2.66-2.66V899.3c0-1.5 1.17-2.64 2.67-2.64h30.55v8.48h8.33v32.34z" stroke="#000" stroke-opacity="0" fill="#ef8d22"/><path d="M957.1 923.7l-6.62-3.8 6.63-4.15v-3.5l-9.42 6.46v2.35l9.43 6.14v-3.5zM969.25 907.43h-3l-7 24.13h2.82l7.18-24.13zM978.38 919.75l-6.83 3.8v3.48l9.5-6.14v-2.35l-9.5-6.44v3.5l6.83 4.15z" stroke="#000" stroke-opacity="0" fill="#ef8d22"/><path d="M1000 877.2h320v82.62h-320z" stroke="#000" stroke-opacity="0" fill="#fff" fill-opacity="0"/><use xlink:href="#q" transform="matrix(1,0,0,1,1005,882.1876376922602) translate(0 46.75260416666667)"/><path d="M1000 959.82h320v82.63h-320z" stroke="#000" stroke-opacity="0" fill="#fff" fill-opacity="0"/><use xlink:href="#r" transform="matrix(1,0,0,1,1005,964.8178460255936) translate(0 46.75260416666667)"/><path d="M980.72 853v17H900v49.4h23.62" stroke="#333" fill="none"/><path d="M981.22 853h-1v-.5h1z" fill="#333"/><path d="M938.38 919.4L924.12 924v-9.27z" stroke="#333" fill="#333"/><path d="M980.72 853v17H900v132.43h23.62" stroke="#333" fill="none"/><path d="M981.22 853h-1v-.5h1z" fill="#333"/><path d="M938.38 1002.43l-14.26 4.64v-9.27z" stroke="#333" fill="#333"/><defs><path fill="#fafafa" d="M881-1016c0-191-181-195-387-192v395c210 7 387-9 387-203zm313-8c0 197-121 322-272 387 220 329 363 541 430 637h-344L659-561H494V0H184v-1462h426c360 1 584 108 584 438" id="s"/><path fill="#fafafa" d="M633-893c-183 0-230 133-230 332s48 336 232 336c183 0 229-137 229-336s-47-332-231-332zm4-246c347 5 535 225 539 578S978 25 631 20C283 15 96-208 92-561c-4-355 196-583 545-578" id="t"/><path fill="#fafafa" d="M498-350c-2 85 52 126 133 127 53 0 117-12 192-35v227C747 3 654 20 543 20c-247 0-350-124-350-370v-539H47v-129l168-102 88-236h195v238h313v229H498v539" id="u"/><g id="a"><use transform="matrix(0.013020833333333334,0,0,0.013020833333333334,0,0)" xlink:href="#s"/><use transform="matrix(0.013020833333333334,0,0,0.013020833333333334,17.604166666666668,0)" xlink:href="#t"/><use transform="matrix(0.013020833333333334,0,0,0.013020833333333334,34.114583333333336,0)" xlink:href="#t"/><use transform="matrix(0.013020833333333334,0,0,0.013020833333333334,50.625,0)" xlink:href="#u"/></g><path fill="#fafafa" d="M954-63C853 0 774 20 614 20 266 20 92-171 92-553c0-369 188-586 549-586 129 0 245 25 348 76l-90 236c-84-31-156-66-258-66-159 0-238 113-238 338 0 219 79 328 238 328 137 0 223-38 313-97v261" id="v"/><path fill="#fafafa" d="M1384-895c-176 0-222 133-223 334V0H856v-653c-1-144-37-242-168-242-78 0-135 29-170 86s-53 152-53 283V0H160v-1118h233l41 143h17c56-98 174-164 325-164 167 0 281 55 340 164h27c55-99 179-165 330-164 265 2 385 133 385 410V0h-306v-653c-1-144-37-242-168-242" id="w"/><path fill="#fafafa" d="M795-1139c261-1 398 148 397 410V0H887v-653c-1-148-42-242-180-242-202 0-242 139-242 369V0H160v-1118h233l41 143h17c62-102 185-163 344-164" id="x"/><g id="b"><use transform="matrix(0.013020833333333334,0,0,0.013020833333333334,0,0)" xlink:href="#v"/><use transform="matrix(0.013020833333333334,0,0,0.013020833333333334,13.7109375,0)" xlink:href="#t"/><use transform="matrix(0.013020833333333334,0,0,0.013020833333333334,30.221354166666668,0)" xlink:href="#w"/><use transform="matrix(0.013020833333333334,0,0,0.013020833333333334,56.40625,0)" xlink:href="#w"/><use transform="matrix(0.013020833333333334,0,0,0.013020833333333334,82.59114583333334,0)" xlink:href="#t"/><use transform="matrix(0.013020833333333334,0,0,0.013020833333333334,99.10156250000001,0)" xlink:href="#x"/></g><path fill="#fafafa" d="M782-1139c293 0 422 256 422 578 0 230-70 418-202 512-65 46-141 69-228 69-131 0-234-48-309-143h-16c32 222 9 383 16 615H160v-1610h248l43 145h14c71-111 177-166 317-166zm111 574c0-190-40-330-209-330-184 0-221 128-219 332 2 209 40 336 223 336 137 0 205-113 205-338" id="y"/><path fill="#fafafa" d="M618-1141c286 0 465 117 465 396V0H870l-59-152h-8C704-33 632 18 432 20 216 22 86-113 86-334c0-119 44-202 124-262 109-82 356-99 570-100 11-142-39-219-174-219-89 0-194 27-315 81l-101-206c129-67 271-101 428-101zm-71 938c137 0 235-88 233-223v-92c-190 3-382 4-381 186 0 86 49 129 148 129" id="z"/><path fill="#fafafa" d="M549-1139c43 0 163 15 194 21h390v155l-175 45c32 50 48 106 48 168 2 289-261 415-574 373-89 78-53 146 121 146h190c229-1 375 93 377 311 0 131-55 232-164 304S691 492 487 492c-156 0-275-28-357-82S6 280 6 182C6 26 113-51 254-84c-55-22-119-89-117-162 3-107 68-140 144-190C169-483 89-600 90-756c1-259 185-383 459-383zM467 14c-100-2-199 51-197 144 3 184 368 146 487 90 62-30 93-71 93-123 0-42-19-70-55-87-64-30-222-23-328-24zm82-569c118 0 165-80 166-197 0-135-55-202-166-202-112 0-168 67-168 202 0 117 52 197 168 197" id="A"/><path fill="#fafafa" d="M836-686c0-141-77-236-213-236-140 0-206 98-215 236h428zm223 627C946-4 838 19 666 20 308 22 92-191 92-551c0-356 187-588 529-588 314 0 504 195 501 508v148H401c5 169 104 277 279 276 158-2 261-33 379-88v236" id="B"/><path fill="#fafafa" d="M836-831c-99-39-182-77-306-82-139-6-173 83-92 144 51 39 327 139 383 188 71 62 119 126 119 249C940-74 747 21 463 20 305 20 202 0 94-45v-252c93 45 253 94 379 94 111 0 166-32 166-96 0-68-41-76-98-109-79-46-276-119-333-167-74-61-116-125-116-252 0-368 555-367 836-224" id="C"/><g id="c"><use transform="matrix(0.013020833333333334,0,0,0.013020833333333334,0,0)" xlink:href="#y"/><use transform="matrix(0.013020833333333334,0,0,0.013020833333333334,16.875,0)" xlink:href="#z"/><use transform="matrix(0.013020833333333334,0,0,0.013020833333333334,32.981770833333336,0)" xlink:href="#A"/><use transform="matrix(0.013020833333333334,0,0,0.013020833333333334,48.046875,0)" xlink:href="#B"/><use transform="matrix(0.013020833333333334,0,0,0.013020833333333334,63.802083333333336,0)" xlink:href="#C"/></g><path fill="#fafafa" d="M293 27c-110 0-177-61-176-170 0-113 63-170 176-170 109-1 174 61 174 170 0 105-67 170-174 170" id="D"/><path fill="#fafafa" d="M0-1118h334l211 629c18 55 30 119 37 194h6c7-69 23-133 43-194l207-629h327L692 143C611 389 392 544 70 475V233c95 21 196 18 262-37 50-42 89-123 112-204" id="E"/><g id="d"><use transform="matrix(0.013020833333333334,0,0,0.013020833333333334,0,0)" xlink:href="#z"/><use transform="matrix(0.013020833333333334,0,0,0.013020833333333334,16.106770833333336,0)" xlink:href="#y"/><use transform="matrix(0.013020833333333334,0,0,0.013020833333333334,32.981770833333336,0)" xlink:href="#y"/><use transform="matrix(0.013020833333333334,0,0,0.013020833333333334,49.856770833333336,0)" xlink:href="#D"/><use transform="matrix(0.013020833333333334,0,0,0.013020833333333334,57.4609375,0)" xlink:href="#y"/><use transform="matrix(0.013020833333333334,0,0,0.013020833333333334,73.80208333333334,0)" xlink:href="#E"/></g><path fill="#fafafa" d="M479-1407c-1 99-61 150-166 150-111 0-166-50-166-150 0-99 55-149 166-149s166 50 166 149zM465 0H160v-1118h305V0" id="F"/><path fill="#fafafa" d="M92-557c0-327 132-582 430-582 141 0 248 55 322 164h10c-38-188-18-371-23-581h306V0H903l-59-145h-13C762-35 656 20 514 20 222 20 92-237 92-557zm309 4c0 190 54 330 220 330 191 0 231-123 231-332 0-214-44-336-236-336-161 0-215 151-215 338" id="G"/><path fill="#fafafa" d="M389-571L29-1118h346l217 356 219-356h346L793-571 1174 0H827L592-383 356 0H10" id="H"/><g id="e"><use transform="matrix(0.013020833333333334,0,0,0.013020833333333334,0,0)" xlink:href="#F"/><use transform="matrix(0.013020833333333334,0,0,0.013020833333333334,8.138020833333334,0)" xlink:href="#x"/><use transform="matrix(0.013020833333333334,0,0,0.013020833333333334,25.6640625,0)" xlink:href="#G"/><use transform="matrix(0.013020833333333334,0,0,0.013020833333333334,42.5390625,0)" xlink:href="#B"/><use transform="matrix(0.013020833333333334,0,0,0.013020833333333334,57.76041666666667,0)" xlink:href="#H"/><use transform="matrix(0.013020833333333334,0,0,0.013020833333333334,73.17708333333334,0)" xlink:href="#D"/><use transform="matrix(0.013020833333333334,0,0,0.013020833333333334,80.78125000000001,0)" xlink:href="#y"/><use transform="matrix(0.013020833333333334,0,0,0.013020833333333334,97.12239583333334,0)" xlink:href="#E"/></g><g id="f"><use transform="matrix(0.013020833333333334,0,0,0.013020833333333334,0,0)" xlink:href="#G"/><use transform="matrix(0.013020833333333334,0,0,0.013020833333333334,16.875,0)" xlink:href="#z"/><use transform="matrix(0.013020833333333334,0,0,0.013020833333333334,32.981770833333336,0)" xlink:href="#u"/><use transform="matrix(0.013020833333333334,0,0,0.013020833333333334,44.55729166666667,0)" xlink:href="#z"/><use transform="matrix(0.013020833333333334,0,0,0.013020833333333334,60.6640625,0)" xlink:href="#D"/><use transform="matrix(0.013020833333333334,0,0,0.013020833333333334,68.26822916666667,0)" xlink:href="#y"/><use transform="matrix(0.013020833333333334,0,0,0.013020833333333334,84.609375,0)" xlink:href="#E"/></g><path fill="#fafafa" d="M846 324H-4V184h850v140" id="I"/><g id="g"><use transform="matrix(0.013020833333333334,0,0,0.013020833333333334,0,0)" xlink:href="#v"/><use transform="matrix(0.013020833333333334,0,0,0.013020833333333334,13.7109375,0)" xlink:href="#t"/><use transform="matrix(0.013020833333333334,0,0,0.013020833333333334,30.221354166666668,0)" xlink:href="#w"/><use transform="matrix(0.013020833333333334,0,0,0.013020833333333334,56.40625,0)" xlink:href="#y"/><use transform="matrix(0.013020833333333334,0,0,0.013020833333333334,73.28125,0)" xlink:href="#t"/><use transform="matrix(0.013020833333333334,0,0,0.013020833333333334,89.79166666666667,0)" xlink:href="#x"/><use transform="matrix(0.013020833333333334,0,0,0.013020833333333334,107.31770833333334,0)" xlink:href="#B"/><use transform="matrix(0.013020833333333334,0,0,0.013020833333333334,123.07291666666667,0)" xlink:href="#x"/><use transform="matrix(0.013020833333333334,0,0,0.013020833333333334,140.59895833333334,0)" xlink:href="#u"/><use transform="matrix(0.013020833333333334,0,0,0.013020833333333334,152.17447916666669,0)" xlink:href="#C"/><use transform="matrix(0.013020833333333334,0,0,0.013020833333333334,165.42968750000003,0)" xlink:href="#I"/><use transform="matrix(0.013020833333333334,0,0,0.013020833333333334,176.39322916666669,0)" xlink:href="#C"/><use transform="matrix(0.013020833333333334,0,0,0.013020833333333334,189.64843750000003,0)" xlink:href="#B"/><use transform="matrix(0.013020833333333334,0,0,0.013020833333333334,205.40364583333337,0)" xlink:href="#u"/><use transform="matrix(0.013020833333333334,0,0,0.013020833333333334,216.9791666666667,0)" xlink:href="#u"/><use transform="matrix(0.013020833333333334,0,0,0.013020833333333334,228.55468750000006,0)" xlink:href="#F"/><use transform="matrix(0.013020833333333334,0,0,0.013020833333333334,236.6927083333334,0)" xlink:href="#x"/><use transform="matrix(0.013020833333333334,0,0,0.013020833333333334,254.21875000000006,0)" xlink:href="#A"/><use transform="matrix(0.013020833333333334,0,0,0.013020833333333334,269.28385416666674,0)" xlink:href="#C"/></g><path fill="#fafafa" d="M639-223c202 0 242-139 242-369v-526h305V0H952l-41-143h-16C834-43 709 20 551 20c-263 0-397-147-397-409v-729h305v653c1 148 42 242 180 242" id="J"/><g id="h"><use transform="matrix(0.013020833333333334,0,0,0.013020833333333334,0,0)" xlink:href="#F"/><use transform="matrix(0.013020833333333334,0,0,0.013020833333333334,8.138020833333334,0)" xlink:href="#x"/><use transform="matrix(0.013020833333333334,0,0,0.013020833333333334,25.6640625,0)" xlink:href="#y"/><use transform="matrix(0.013020833333333334,0,0,0.013020833333333334,42.5390625,0)" xlink:href="#J"/><use transform="matrix(0.013020833333333334,0,0,0.013020833333333334,60.06510416666667,0)" xlink:href="#u"/><use transform="matrix(0.013020833333333334,0,0,0.013020833333333334,71.640625,0)" xlink:href="#C"/><use transform="matrix(0.013020833333333334,0,0,0.013020833333333334,84.89583333333333,0)" xlink:href="#D"/><use transform="matrix(0.013020833333333334,0,0,0.013020833333333334,92.5,0)" xlink:href="#y"/><use transform="matrix(0.013020833333333334,0,0,0.013020833333333334,108.84114583333334,0)" xlink:href="#E"/></g><path fill="#fafafa" d="M1481 0h-394L451-1106h-9c33 431 14 683 19 1106H184v-1462h391l635 1095h7c-26-429-11-678-15-1095h279V0" id="K"/><path fill="#fafafa" d="M881-995c0-154-85-213-246-213H494v434h102c173 1 285-62 285-221zm-230-467c334-1 543 136 543 456 0 330-225 489-567 486H494V0H184v-1462h467" id="L"/><path fill="#fafafa" d="M1018-1462h313L834 0H496L0-1462h313l275 870c22 71 66 250 78 322 7-61 27-170 75-322" id="M"/><g id="i"><use transform="matrix(0.013020833333333334,0,0,0.013020833333333334,0,0)" xlink:href="#K"/><use transform="matrix(0.013020833333333334,0,0,0.013020833333333334,21.6796875,0)" xlink:href="#L"/><use transform="matrix(0.013020833333333334,0,0,0.013020833333333334,38.42447916666667,0)" xlink:href="#M"/><use transform="matrix(0.013020833333333334,0,0,0.013020833333333334,54.42708333333335,0)" xlink:href="#D"/><use transform="matrix(0.013020833333333334,0,0,0.013020833333333334,62.03125,0)" xlink:href="#y"/><use transform="matrix(0.013020833333333334,0,0,0.013020833333333334,78.37239583333334,0)" xlink:href="#E"/></g><g id="j"><use transform="matrix(0.013020833333333334,0,0,0.013020833333333334,0,0)" xlink:href="#B"/><use transform="matrix(0.013020833333333334,0,0,0.013020833333333334,15.755208333333334,0)" xlink:href="#w"/><use transform="matrix(0.013020833333333334,0,0,0.013020833333333334,41.94010416666667,0)" xlink:href="#F"/><use transform="matrix(0.013020833333333334,0,0,0.013020833333333334,50.07812500000001,0)" xlink:href="#C"/><use transform="matrix(0.013020833333333334,0,0,0.013020833333333334,63.33333333333335,0)" xlink:href="#C"/><use transform="matrix(0.013020833333333334,0,0,0.013020833333333334,76.58854166666667,0)" xlink:href="#F"/><use transform="matrix(0.013020833333333334,0,0,0.013020833333333334,84.7265625,0)" xlink:href="#t"/><use transform="matrix(0.013020833333333334,0,0,0.013020833333333334,101.23697916666667,0)" xlink:href="#x"/><use transform="matrix(0.013020833333333334,0,0,0.013020833333333334,118.76302083333334,0)" xlink:href="#C"/><use transform="matrix(0.013020833333333334,0,0,0.013020833333333334,132.01822916666669,0)" xlink:href="#D"/><use transform="matrix(0.013020833333333334,0,0,0.013020833333333334,139.62239583333334,0)" xlink:href="#y"/><use transform="matrix(0.013020833333333334,0,0,0.013020833333333334,155.96354166666669,0)" xlink:href="#E"/></g><g id="k"><use transform="matrix(0.013020833333333334,0,0,0.013020833333333334,0,0)" xlink:href="#C"/><use transform="matrix(0.013020833333333334,0,0,0.013020833333333334,13.255208333333334,0)" xlink:href="#B"/><use transform="matrix(0.013020833333333334,0,0,0.013020833333333334,29.010416666666668,0)" xlink:href="#u"/><use transform="matrix(0.013020833333333334,0,0,0.013020833333333334,40.5859375,0)" xlink:href="#u"/><use transform="matrix(0.013020833333333334,0,0,0.013020833333333334,52.161458333333336,0)" xlink:href="#F"/><use transform="matrix(0.013020833333333334,0,0,0.013020833333333334,60.29947916666667,0)" xlink:href="#x"/><use transform="matrix(0.013020833333333334,0,0,0.013020833333333334,77.82552083333334,0)" xlink:href="#A"/><use transform="matrix(0.013020833333333334,0,0,0.013020833333333334,92.89062500000001,0)" xlink:href="#C"/><use transform="matrix(0.013020833333333334,0,0,0.013020833333333334,106.14583333333334,0)" xlink:href="#D"/><use transform="matrix(0.013020833333333334,0,0,0.013020833333333334,113.75,0)" xlink:href="#y"/><use transform="matrix(0.013020833333333334,0,0,0.013020833333333334,130.09114583333334,0)" xlink:href="#E"/></g><g id="l"><use transform="matrix(0.013020833333333334,0,0,0.013020833333333334,0,0)" xlink:href="#w"/><use transform="matrix(0.013020833333333334,0,0,0.013020833333333334,26.184895833333336,0)" xlink:href="#z"/><use transform="matrix(0.013020833333333334,0,0,0.013020833333333334,42.29166666666667,0)" xlink:href="#F"/><use transform="matrix(0.013020833333333334,0,0,0.013020833333333334,50.42968750000001,0)" xlink:href="#x"/><use transform="matrix(0.013020833333333334,0,0,0.013020833333333334,67.95572916666667,0)" xlink:href="#D"/><use transform="matrix(0.013020833333333334,0,0,0.013020833333333334,75.55989583333334,0)" xlink:href="#y"/><use transform="matrix(0.013020833333333334,0,0,0.013020833333333334,91.90104166666667,0)" xlink:href="#E"/></g><g id="m"><use transform="matrix(0.013020833333333334,0,0,0.013020833333333334,0,0)" xlink:href="#v"/><use transform="matrix(0.013020833333333334,0,0,0.013020833333333334,13.7109375,0)" xlink:href="#t"/><use transform="matrix(0.013020833333333334,0,0,0.013020833333333334,30.221354166666668,0)" xlink:href="#w"/><use transform="matrix(0.013020833333333334,0,0,0.013020833333333334,56.40625,0)" xlink:href="#y"/><use transform="matrix(0.013020833333333334,0,0,0.013020833333333334,73.28125,0)" xlink:href="#t"/><use transform="matrix(0.013020833333333334,0,0,0.013020833333333334,89.79166666666667,0)" xlink:href="#x"/><use transform="matrix(0.013020833333333334,0,0,0.013020833333333334,107.31770833333334,0)" xlink:href="#B"/><use transform="matrix(0.013020833333333334,0,0,0.013020833333333334,123.07291666666667,0)" xlink:href="#x"/><use transform="matrix(0.013020833333333334,0,0,0.013020833333333334,140.59895833333334,0)" xlink:href="#u"/><use transform="matrix(0.013020833333333334,0,0,0.013020833333333334,152.17447916666669,0)" xlink:href="#C"/><use transform="matrix(0.013020833333333334,0,0,0.013020833333333334,165.42968750000003,0)" xlink:href="#I"/><use transform="matrix(0.013020833333333334,0,0,0.013020833333333334,176.39322916666669,0)" xlink:href="#w"/><use transform="matrix(0.013020833333333334,0,0,0.013020833333333334,202.57812500000003,0)" xlink:href="#z"/><use transform="matrix(0.013020833333333334,0,0,0.013020833333333334,218.6848958333334,0)" xlink:href="#F"/><use transform="matrix(0.013020833333333334,0,0,0.013020833333333334,226.8229166666667,0)" xlink:href="#x"/></g><path fill="#fafafa" d="M451-930c71-134 228-244 436-200l-23 286c-220-45-399 61-399 275V0H160v-1118h231l45 188h15" id="N"/><path fill="#fafafa" d="M426 0L0-1118h319l216 637c24 81 39 157 45 229h6c3-64 15-141 45-229l215-637h319L739 0H426" id="O"/><g id="n"><use transform="matrix(0.013020833333333334,0,0,0.013020833333333334,0,0)" xlink:href="#v"/><use transform="matrix(0.013020833333333334,0,0,0.013020833333333334,13.7109375,0)" xlink:href="#N"/><use transform="matrix(0.013020833333333334,0,0,0.013020833333333334,25.286458333333336,0)" xlink:href="#B"/><use transform="matrix(0.013020833333333334,0,0,0.013020833333333334,41.04166666666667,0)" xlink:href="#z"/><use transform="matrix(0.013020833333333334,0,0,0.013020833333333334,57.1484375,0)" xlink:href="#u"/><use transform="matrix(0.013020833333333334,0,0,0.013020833333333334,68.72395833333334,0)" xlink:href="#B"/><use transform="matrix(0.013020833333333334,0,0,0.013020833333333334,84.47916666666667,0)" xlink:href="#v"/><use transform="matrix(0.013020833333333334,0,0,0.013020833333333334,98.19010416666667,0)" xlink:href="#C"/><use transform="matrix(0.013020833333333334,0,0,0.013020833333333334,111.4453125,0)" xlink:href="#O"/><use transform="matrix(0.013020833333333334,0,0,0.013020833333333334,125.546875,0)" xlink:href="#D"/><use transform="matrix(0.013020833333333334,0,0,0.013020833333333334,133.15104166666666,0)" xlink:href="#y"/><use transform="matrix(0.013020833333333334,0,0,0.013020833333333334,149.4921875,0)" xlink:href="#E"/></g><path fill="#fafafa" d="M465 0H160v-1556h305V0" id="P"/><g id="o"><use transform="matrix(0.013020833333333334,0,0,0.013020833333333334,0,0)" xlink:href="#N"/><use transform="matrix(0.013020833333333334,0,0,0.013020833333333334,11.575520833333334,0)" xlink:href="#B"/><use transform="matrix(0.013020833333333334,0,0,0.013020833333333334,27.330729166666668,0)" xlink:href="#P"/><use transform="matrix(0.013020833333333334,0,0,0.013020833333333334,35.46875,0)" xlink:href="#t"/><use transform="matrix(0.013020833333333334,0,0,0.013020833333333334,51.97916666666667,0)" xlink:href="#z"/><use transform="matrix(0.013020833333333334,0,0,0.013020833333333334,68.0859375,0)" xlink:href="#G"/><use transform="matrix(0.013020833333333334,0,0,0.013020833333333334,84.9609375,0)" xlink:href="#I"/></g><g id="p"><use transform="matrix(0.013020833333333334,0,0,0.013020833333333334,0,0)" xlink:href="#C"/><use transform="matrix(0.013020833333333334,0,0,0.013020833333333334,13.255208333333334,0)" xlink:href="#v"/><use transform="matrix(0.013020833333333334,0,0,0.013020833333333334,26.966145833333336,0)" xlink:href="#B"/><use transform="matrix(0.013020833333333334,0,0,0.013020833333333334,42.72135416666667,0)" xlink:href="#x"/><use transform="matrix(0.013020833333333334,0,0,0.013020833333333334,60.24739583333335,0)" xlink:href="#z"/><use transform="matrix(0.013020833333333334,0,0,0.013020833333333334,76.35416666666669,0)" xlink:href="#N"/><use transform="matrix(0.013020833333333334,0,0,0.013020833333333334,88.46354166666669,0)" xlink:href="#F"/><use transform="matrix(0.013020833333333334,0,0,0.013020833333333334,96.60156250000001,0)" xlink:href="#t"/><use transform="matrix(0.013020833333333334,0,0,0.013020833333333334,113.1119791666667,0)" xlink:href="#C"/><use transform="matrix(0.013020833333333334,0,0,0.013020833333333334,126.3671875,0)" xlink:href="#D"/><use transform="matrix(0.013020833333333334,0,0,0.013020833333333334,133.97135416666669,0)" xlink:href="#y"/><use transform="matrix(0.013020833333333334,0,0,0.013020833333333334,150.31250000000003,0)" xlink:href="#E"/></g><path fill="#333" d="M995-51C878-2 799 19 639 20c-329 2-524-221-524-559 0-326 172-577 481-577 278 0 451 210 446 493v105H287c4 242 121 392 358 393 118 0 235-25 350-74v148zM864-653c2-195-85-324-270-324-190 0-288 139-303 324h573" id="Q"/><path fill="#333" d="M1368-1116c259 2 372 131 371 401V0h-166v-713c0-168-66-262-230-262-221 0-303 131-303 363V0H874v-713c-1-169-66-262-231-262-235 0-301 142-301 400V0H176v-1096h135l27 150h8c56-99 174-170 324-170 171 0 283 62 336 186h8c60-108 189-187 354-186" id="R"/><path fill="#333" d="M342 0H176v-1096h166V0zm-82-1282c-61 0-98-43-98-111 0-69 36-110 98-110 59 0 98 43 98 110s-39 111-98 111" id="S"/><path fill="#333" d="M502-977c-130 0-238 32-238 139 0 75 39 101 95 134 33 19 97 46 192 81 130 48 217 95 263 143s69 108 69 181C883-73 695 20 449 20 304 20 190-3 109-49v-154c91 47 216 86 344 86 149 0 270-36 270-168 0-43-21-76-55-109-56-55-367-158-434-208-74-55-128-109-128-225 0-327 490-342 754-217l-59 135c-110-45-210-68-299-68" id="T"/><path fill="#333" d="M621-1116c316 0 501 239 501 567 0 339-180 575-508 569S119-212 115-549c-4-339 178-567 506-567zm-5 141c-239 0-329 168-329 426 0 255 93 430 331 430s332-174 332-430-95-426-334-426" id="U"/><path fill="#333" d="M694-1116c270 0 399 125 398 401V0H926v-709c-1-177-76-266-252-266-250 0-332 133-332 400V0H176v-1096h135l27 150h8c62-101 190-170 348-170" id="V"/><path fill="#333" d="M922 315H-4V184h926v131" id="W"/><path fill="#333" d="M287-543c-1 247 91 418 323 418 91 0 185-20 281-59v147C818 1 725 20 614 20c-329 0-499-221-499-561 0-349 172-575 510-575 96 0 221 26 282 57l-51 141c-61-25-157-50-235-51-223 0-334 142-334 426" id="X"/><path fill="#333" d="M1141-549c0 329-147 569-455 569-159 0-273-61-344-161h-12c23 199 7 418 12 633H176v-1588h135l23 150h8c77-108 175-170 344-170 311 0 455 237 455 567zm-172-2c0-242-88-424-307-424-256 0-323 154-320 426 3 280 68 430 324 430 213 0 303-196 303-432" id="Y"/><path fill="#333" d="M354-322c-2 123 60 204 176 205 51 1 114-10 150-20v127C647 7 557 20 506 20 294 20 188-92 188-315v-652H31v-80l157-69 70-234h96v254h318v129H354v645" id="Z"/><g id="q"><use transform="matrix(0.013020833333333334,0,0,0.013020833333333334,0,0)" xlink:href="#Q"/><use transform="matrix(0.013020833333333334,0,0,0.013020833333333334,14.9609375,0)" xlink:href="#R"/><use transform="matrix(0.013020833333333334,0,0,0.013020833333333334,39.765625,0)" xlink:href="#S"/><use transform="matrix(0.013020833333333334,0,0,0.013020833333333334,46.510416666666664,0)" xlink:href="#T"/><use transform="matrix(0.013020833333333334,0,0,0.013020833333333334,59.23177083333332,0)" xlink:href="#T"/><use transform="matrix(0.013020833333333334,0,0,0.013020833333333334,71.953125,0)" xlink:href="#S"/><use transform="matrix(0.013020833333333334,0,0,0.013020833333333334,78.69791666666667,0)" xlink:href="#U"/><use transform="matrix(0.013020833333333334,0,0,0.013020833333333334,94.8046875,0)" xlink:href="#V"/><use transform="matrix(0.013020833333333334,0,0,0.013020833333333334,111.171875,0)" xlink:href="#T"/><use transform="matrix(0.013020833333333334,0,0,0.013020833333333334,123.89322916666667,0)" xlink:href="#W"/><use transform="matrix(0.013020833333333334,0,0,0.013020833333333334,135.84635416666669,0)" xlink:href="#X"/><use transform="matrix(0.013020833333333334,0,0,0.013020833333333334,148.54166666666669,0)" xlink:href="#U"/><use transform="matrix(0.013020833333333334,0,0,0.013020833333333334,164.64843750000003,0)" xlink:href="#R"/><use transform="matrix(0.013020833333333334,0,0,0.013020833333333334,189.45312500000003,0)" xlink:href="#Y"/><use transform="matrix(0.013020833333333334,0,0,0.013020833333333334,205.79427083333337,0)" xlink:href="#U"/><use transform="matrix(0.013020833333333334,0,0,0.013020833333333334,221.9010416666667,0)" xlink:href="#V"/><use transform="matrix(0.013020833333333334,0,0,0.013020833333333334,238.2682291666667,0)" xlink:href="#Q"/><use transform="matrix(0.013020833333333334,0,0,0.013020833333333334,253.2291666666667,0)" xlink:href="#V"/><use transform="matrix(0.013020833333333334,0,0,0.013020833333333334,269.59635416666674,0)" xlink:href="#Z"/></g><path fill="#333" d="M588-1114c260 0 384 106 385 366V0H850l-33-156h-8C708-34 639 17 442 20 231 23 94-94 94-303c0-221 177-337 531-348l186-6c11-203-40-320-233-320-91 0-195 28-310 84l-51-127c97-53 229-94 371-94zM268-301c-1 123 81 184 207 184 203 0 334-120 332-323v-99c-257 14-539-7-539 238" id="aa"/><path fill="#333" d="M342 0H176v-1556h166V0" id="ab"/><path fill="#333" d="M686 20c-159 0-273-61-344-161h-12L295 0H176v-1556h166c-2 198 6 423-8 606h8c77-109 192-164 344-164 310 0 455 234 455 565 0 329-147 569-455 569zm283-571c0-257-72-424-307-424-256 0-320 146-320 426s68 430 324 430c228 0 303-184 303-432" id="ac"/><path fill="#333" d="M340-561c134-179 332-366 485-535h197L578-629 1053 0H852L465-518 340-410V0H176v-1556h164c-4 336 9 669-8 995h8" id="ad"/><g id="r"><use transform="matrix(0.013020833333333334,0,0,0.013020833333333334,0,0)" xlink:href="#Q"/><use transform="matrix(0.013020833333333334,0,0,0.013020833333333334,14.9609375,0)" xlink:href="#R"/><use transform="matrix(0.013020833333333334,0,0,0.013020833333333334,39.765625,0)" xlink:href="#S"/><use transform="matrix(0.013020833333333334,0,0,0.013020833333333334,46.510416666666664,0)" xlink:href="#T"/><use transform="matrix(0.013020833333333334,0,0,0.013020833333333334,59.23177083333332,0)" xlink:href="#T"/><use transform="matrix(0.013020833333333334,0,0,0.013020833333333334,71.953125,0)" xlink:href="#S"/><use transform="matrix(0.013020833333333334,0,0,0.013020833333333334,78.69791666666667,0)" xlink:href="#U"/><use transform="matrix(0.013020833333333334,0,0,0.013020833333333334,94.8046875,0)" xlink:href="#V"/><use transform="matrix(0.013020833333333334,0,0,0.013020833333333334,111.171875,0)" xlink:href="#T"/><use transform="matrix(0.013020833333333334,0,0,0.013020833333333334,123.89322916666667,0)" xlink:href="#W"/><use transform="matrix(0.013020833333333334,0,0,0.013020833333333334,135.84635416666669,0)" xlink:href="#X"/><use transform="matrix(0.013020833333333334,0,0,0.013020833333333334,148.54166666666669,0)" xlink:href="#aa"/><use transform="matrix(0.013020833333333334,0,0,0.013020833333333334,163.37239583333334,0)" xlink:href="#ab"/><use transform="matrix(0.013020833333333334,0,0,0.013020833333333334,170.1171875,0)" xlink:href="#ab"/><use transform="matrix(0.013020833333333334,0,0,0.013020833333333334,176.86197916666666,0)" xlink:href="#ac"/><use transform="matrix(0.013020833333333334,0,0,0.013020833333333334,193.203125,0)" xlink:href="#aa"/><use transform="matrix(0.013020833333333334,0,0,0.013020833333333334,208.03385416666666,0)" xlink:href="#X"/><use transform="matrix(0.013020833333333334,0,0,0.013020833333333334,220.72916666666669,0)" xlink:href="#ad"/><use transform="matrix(0.013020833333333334,0,0,0.013020833333333334,234.7265625,0)" xlink:href="#T"/></g></defs></g></svg>